<?xml version="1.0" encoding="UTF-8"?>
<svg width="39px" height="64px" viewBox="0 0 39 64" version="1.1" xmlns="http://www.w3.org/2000/svg" xmlns:xlink="http://www.w3.org/1999/xlink">
    <!-- Generator: Sketch 43 (38999) - http://www.bohemiancoding.com/sketch -->
    <title>mark_gradient</title>
    <desc>Created with Sketch.</desc>
    <defs>
        <linearGradient x1="97.2524827%" y1="87.7626846%" x2="-16.1195743%" y2="3.67236702%" id="linearGradient-1">
            <stop stop-color="#1778FF" offset="0%"></stop>
            <stop stop-color="#16FFA7" offset="100%"></stop>
        </linearGradient>
    </defs>
    <g id="Assets" stroke="none" stroke-width="1" fill="none" fill-rule="evenodd">
        <g id="mark_gradient" fill="url(#linearGradient-1)">
            <path d="M38.9074547,44.3984485 C38.4243718,39.4734203 36.0468161,34.5453594 32.3828059,30.8773658 L13.7174796,12.1878846 C16.4683267,9.76100421 20.2315278,9.96646644 22.2183769,10.8072694 C24.502799,11.7754439 25.638574,12.9119305 26.5509799,13.824759 L26.5524943,13.8270335 C27.0704077,14.344859 27.9086096,14.3441008 28.4257659,13.824759 C28.9429221,13.3061754 28.9414077,12.4653724 28.4234943,11.9475469 C27.4058399,10.9285755 26.010351,9.53355525 23.251175,8.36446759 C20.2095695,7.07407381 14.0279248,6.90424525 10.3873873,11.9331418 C7.97121534,15.2758834 7.85233755,19.4025657 10.0625557,23.2570674 C11.9835298,26.6028417 17.4647799,31.5058831 22.5727387,35.8607726 C25.927818,38.7228387 27.8964947,42.2210037 27.9744846,45.4576025 C28.0115866,46.9974319 27.6148225,48.3697073 26.8016076,49.5592654 L8.45959859,31.1935199 C5.22718294,27.9569212 3.13735695,23.6293256 2.7262064,19.3206841 C2.41651842,16.0734711 2.8988442,11.348598 6.96037559,7.28332685 C10.1829478,4.05582608 14.5730968,2.41288642 19.3168504,2.6790017 C23.8372349,2.92540474 28.244799,4.88449847 31.4113397,8.05437883 C32.6955227,9.34022363 33.0059678,9.67305728 33.7851095,10.6002909 C34.2568347,11.1598153 35.0927651,11.232599 35.6523236,10.7610215 C36.2118821,10.2886858 36.2845717,9.45167362 35.8128464,8.89139101 C34.9791876,7.89895538 34.6240686,7.51835745 33.2853685,6.17868306 C29.6637606,2.55163028 24.6247055,0.310499844 19.4614724,0.0292212941 C13.9499349,-0.26267154 8.84803363,1.63955994 5.08634684,5.40687292 C1.34813273,9.1491665 -0.426704995,14.1795794 0.0881796705,19.5731524 C0.556876153,24.4852918 2.92534561,29.4050129 6.58556984,33.0699738 L24.9336363,51.4417846 C21.7958686,53.6487977 17.6911778,52.8368049 15.6755557,51.6889459 C12.620321,49.947445 10.1397884,47.3939513 9.21829628,46.1020412 C8.79200207,45.5061249 7.96440069,45.3666229 7.36925459,45.7942269 C6.77410849,46.2195565 6.63630112,47.048987 7.06183816,47.6449033 C7.97197252,48.920892 10.6705739,51.8898591 14.3648714,53.9945202 C15.8194206,54.8239507 17.9940511,55.5002323 20.3367763,55.5002323 C22.7711207,55.5002323 25.386432,54.7701211 27.5625769,52.7223223 C29.6334733,50.774601 30.6920156,48.2400614 30.6238691,45.3931586 C30.5277068,41.4029456 28.219812,37.1921072 24.2907877,33.8410258 C21.5611418,31.5134648 14.3103542,25.3321601 12.3598499,21.935589 C11.4550158,20.3570932 10.3018256,17.3638648 12.0441045,14.2644937 L30.5095344,32.7538198 C36.7737121,39.026104 39.0672204,49.7055909 32.0625174,56.7201169 C28.8376736,59.949134 24.4505534,61.5867665 19.7022567,61.3183767 C15.1750576,61.0659084 10.7485638,59.0886187 7.55779324,55.8922027 C7.20115989,55.5351078 6.80818174,55.1605752 6.38415907,54.755716 C5.18932378,53.6154386 3.83547998,52.3235285 2.34231445,50.5342633 C1.87286078,49.9732225 1.03768757,49.896648 0.475857536,50.3667092 C-0.0859724957,50.8360122 -0.160933646,51.6730244 0.307762837,52.2355815 C1.89784783,54.1408457 3.3713266,55.5472384 4.55556133,56.6769016 C4.96368314,57.0658393 5.34076044,57.4259668 5.68300731,57.7686566 C9.32960223,61.4199706 14.3853153,63.6800551 19.5546059,63.9681571 C19.9392551,63.9893857 20.3201183,64 20.6994671,64 C25.7672952,64 30.4330589,62.104592 33.9365461,58.5965708 C37.6732459,54.8550354 39.4382402,49.8132501 38.9074547,44.3984485" id="logo"></path>
        </g>
    </g>
</svg>