<?xml version="1.0" encoding="UTF-8"?>
<svg width="1307px" height="185px" viewBox="0 0 1307 185" version="1.1" xmlns="http://www.w3.org/2000/svg" xmlns:xlink="http://www.w3.org/1999/xlink">
    <!-- Generator: Sketch 52.6 (67491) - http://www.bohemiancoding.com/sketch -->
    <title>Artboard</title>
    <desc>Created with Sketch.</desc>
    <g id="Artboard" stroke="none" stroke-width="1" fill="none" fill-rule="evenodd">
        <path d="M994.98453,89.0405252 C994.98453,102.726719 994.98453,116.412913 994.98453,130.098105 C994.98453,143.726205 995.673741,157.558636 994.966524,171.165701 C994.613416,177.946697 985.518633,170.585761 983.25594,168.879995 C977.946315,164.879507 972.599679,160.927098 967.31106,156.899567 C957.091933,149.11895 946.864803,141.350352 936.583657,133.650866 C926.650617,126.211803 916.815607,118.642528 906.857559,111.236519 C904.488834,109.474662 903.352486,108.68438 903.283465,112.248159 C903.213444,115.883054 903.282465,119.526963 903.282465,123.162859 C903.282465,130.100108 903.282465,137.03836 903.282465,143.975609 C903.282465,150.681484 903.281465,157.38836 903.281465,164.094234 C903.281465,165.779968 904.18074,171.768679 903.094407,173.060774 C901.752997,174.65536 896.574412,173.721846 894.591805,173.722848 C881.159694,173.725853 867.726583,173.751895 854.294472,173.720845 C852.646968,173.716838 851.15051,174.165566 850.450296,172.591012 C849.512009,170.482593 850.393278,166.195642 850.393278,163.930969 C850.393278,157.204061 850.393278,150.478154 850.393278,143.751245 C850.393278,130.066053 850.393278,116.380861 850.393278,102.695669 C850.393278,75.0939091 850.393278,47.4911479 850.393278,19.8893882 C850.393278,16.6421224 850.395279,13.3948566 850.393278,10.1475907 C850.391278,7.34604769 849.925135,4.61461834 853.098106,6.8552518 C858.414733,10.6093395 863.681345,14.4375474 868.975966,18.2216839 C879.588213,25.8049811 890.304493,33.2360314 900.907738,40.8323498 C911.659028,48.5338387 922.473338,56.1361668 933.29465,63.7364917 C934.925149,64.8813482 938.776328,68.9910125 940.771938,68.8728208 C942.839571,68.7506227 941.974306,62.9381971 941.974306,61.3856795 C941.975307,54.4484299 941.975307,47.5101787 941.975307,40.5729291 C941.975307,33.8670547 941.975307,27.1601787 941.976307,20.4543043 C941.976307,16.9856795 941.977307,13.5170547 941.977307,10.0484299 C941.977307,8.21445592 941.290097,5.4760152 943.06464,4.58557124 C944.939214,3.64504606 949.301549,4.50243643 951.357178,4.5014348 C954.784227,4.5014348 958.211276,4.5014348 961.639325,4.50043318 C968.493422,4.50043318 975.34852,4.50043318 982.202618,4.50043318 C985.400597,4.50043318 988.600576,4.46737958 991.798555,4.5014348 C994.362339,4.52847866 994.895503,4.74182462 994.981529,7.31499734 C995.205597,14.006849 994.98453,20.7447754 994.98453,27.4406335 C994.98453,41.0527071 994.98453,54.6647808 994.98453,68.2768544 C994.98453,75.198078 994.98453,82.1193016 994.98453,89.0405252 Z" id="Path" fill="#FFFFFF"></path>
        <path d="M796.784872,65.6856525 C796.784872,81.8528696 797.376053,98.1482946 796.632825,114.299486 C796.048647,127.003086 794.216086,139.387168 787.328978,150.349946 C771.248056,175.943449 738.74711,180.368625 711.178673,177.141391 C698.802885,175.693043 686.365079,171.46719 676.572081,163.478235 C665.301632,154.285328 658.913677,140.802463 656.713004,126.589415 C654.307267,111.05222 655.52564,94.7948566 655.526641,79.1214402 C655.527641,62.9692475 655.528641,46.8170547 655.529642,30.664862 C655.529642,22.8451814 654.752404,14.5777748 655.545646,6.80216572 C655.768715,4.61862484 656.132826,4.56553875 658.425528,4.51044942 C660.248086,4.46637795 662.077645,4.50243643 663.901204,4.5014348 C668.312554,4.50043318 672.723904,4.49943155 677.135254,4.49943155 C693.343214,4.49842993 709.550174,4.49842993 725.758135,4.49943155 C729.686337,4.49943155 733.614539,4.4974283 737.542741,4.5014348 C738.472026,4.50243643 740.602678,4.15887931 741.344905,4.91811049 C742.215171,5.80755283 741.81805,8.37271255 741.81805,9.46448299 C741.81905,17.5746346 741.82005,25.6837846 741.82005,33.7939362 C741.82005,42.135463 741.82005,50.4769898 741.81905,58.8185166 C741.81905,62.5255279 741.81805,66.2335409 741.81805,69.9405523 C741.81805,71.7945588 741.817049,73.6475637 741.817049,75.5015702 C741.817049,76.3759881 742.324204,79.8376016 741.487949,80.6419058 C740.331595,81.7537088 736.000269,79.2426368 734.614845,78.9241202 C731.071761,78.1077965 727.529677,77.7912832 723.94558,78.3411749 C717.31455,79.3578235 711.484766,81.5784245 706.413214,86.1378181 C696.407152,95.1344072 693.251186,109.753113 698.710857,122.054061 C701.307652,127.90555 706.096117,133.071927 711.637813,136.228046 C717.731678,139.698674 724.163647,140.636194 731.081764,140.078289 C743.815661,139.049621 756.251467,128.180996 758.12504,115.250027 C758.58318,112.085896 759.340412,109.082025 759.340412,105.857796 C759.340412,101.726096 759.342413,97.5933947 759.342413,93.4616947 C759.342413,85.3665674 759.342413,77.2714402 759.342413,69.1773146 C759.342413,52.9870601 759.342413,36.7978073 759.343413,20.6075528 C759.343413,16.445804 759.298399,12.2800488 759.344413,8.11829999 C759.391428,3.83134818 761.352028,4.50343805 765.130184,4.50243643 C773.094622,4.5014348 781.060059,4.5014348 789.024497,4.5014348 C790.845054,4.5014348 795.392446,3.57292912 796.577808,5.32176507 C797.282024,6.36044942 796.780871,8.75332977 796.781871,9.99734709 C796.784872,12.3181105 796.782871,14.6378723 796.782871,16.9586357 C796.783872,25.0798051 796.783872,33.2009746 796.784872,41.3231457 C796.784872,49.4433135 796.784872,57.564483 796.784872,65.6856525 Z" id="Path" fill="#FFFFFF"></path>
        <path d="M0.097050042,94.6135626 C0.097050042,73.6776124 0.097050042,52.7426638 0.0980503482,31.8067136 C0.0980503482,26.6894153 0.0990506543,21.5711154 0.0990506543,16.453817 C0.0990506543,14.1280455 0.0960497359,11.8012724 0.10005096,9.47550086 C0.104052185,7.11767736 -0.68218844,4.77487822 2.08965987,4.51044942 C6.69306872,4.071738 11.5325498,4.51044942 16.1639672,4.51345429 C21.6536473,4.51746079 27.1433274,4.52146729 32.6330075,4.52547378 C51.1306686,4.54049815 69.3852553,3.76824585 87.3367493,8.72127779 C104.087876,13.3427721 118.270216,23.1747158 126.32168,38.8691663 C134.138073,54.1048728 134.257109,74.0061451 129.677707,90.2064159 C124.507125,108.501083 109.963674,121.118544 92.570351,127.489876 C85.3301351,130.142177 77.7758232,131.361153 70.1304834,132.548078 C65.6381085,133.24621 60.7956265,132.347753 56.3742734,133.222171 C53.0922689,133.871224 54.0665671,137.341852 54.069568,140.039226 C54.082572,150.258798 54.1796017,160.48438 54.0705683,170.702951 C54.0495619,172.716216 54.1695986,173.654737 52.1959946,174.391933 C50.243397,175.121115 47.7296277,175.292393 45.6880029,175.724093 C41.3616788,176.637574 37.0213505,177.410828 32.7110314,178.289253 C24.0393775,180.056118 15.3867294,182.241662 6.64305341,183.792177 C5.3546591,184.020547 1.94461548,185.52098 0.767255155,184.755739 C-0.280065372,184.074635 0.10005096,182.348836 0.0980503482,181.258067 C0.0880472868,175.965485 0.097050042,170.672902 0.097050042,165.380319 C0.097050042,141.792068 0.097050042,118.202815 0.097050042,94.6135626 Z M54.0735693,68.9619654 C54.0735693,74.331673 53.6214309,79.9287494 54.0755699,85.2764213 C54.2216146,86.9942069 54.2406204,87.6492691 55.9991586,87.9577694 C58.068792,88.3203574 60.7756204,88.0509205 62.787236,87.5461018 C72.0540721,85.2203303 76.7635134,79.2306173 77.0275942,69.6030049 C77.2716689,60.7065783 73.5015151,52.9489984 64.4137338,50.6232269 C61.0657092,49.7658365 54.3916666,47.8527342 54.0725689,52.6485111 C53.7144593,58.028235 54.0735693,63.5682188 54.0735693,68.9619654 Z" id="Shape" fill="#FFFFFF" fill-rule="nonzero"></path>
        <path d="M414.625914,173.724851 C407.269663,173.724851 399.914412,173.725853 392.558161,173.72385 C390.283464,173.722848 386.658355,174.438008 384.90982,172.83641 C384.014546,172.01608 383.642432,170.002815 383.152282,168.896021 C382.388048,167.171224 381.54479,165.482485 380.790559,163.753682 C378.368818,158.201678 376.005095,152.628641 373.580353,147.075636 C372.771105,145.223633 367.871605,131.505387 365.748956,132.199513 C364.490571,132.61118 362.861072,138.484705 362.374923,139.678641 C361.28759,142.348971 360.128236,145.003276 358.904861,147.615512 C356.560144,152.620628 354.483508,157.763969 352.317845,162.844207 C351.094471,165.71386 349.879099,168.601543 348.547691,171.423119 C347.173271,174.336844 345.029615,173.721846 342.062707,173.722848 C334.986541,173.72385 327.911376,173.72385 320.83521,173.72385 C313.759045,173.72385 306.683879,173.72385 299.607714,173.72385 C297.782155,173.72385 295.955596,173.72385 294.130037,173.72385 C293.147737,173.72385 290.889045,174.210639 290.003774,173.692799 C289.381584,173.32921 289.338571,173.752897 289.013471,173.064781 C288.698375,172.396697 290.570948,169.940715 290.880043,169.379805 C297.357025,157.612723 303.955044,145.905739 310.354002,134.095587 C316.760963,122.271413 323.356982,110.552409 329.866974,98.7853276 C331.35643,96.0929616 332.740854,93.3344884 334.275323,90.6701679 C335.056563,89.3139686 336.325951,87.8716297 336.330953,86.2229562 C336.335954,84.4971576 334.922521,82.7142664 334.13228,81.2669194 C330.917296,75.3833785 327.591278,69.5639416 324.375294,63.6804007 C317.887308,51.8081484 311.225269,40.0310504 304.787299,28.129751 C301.585319,22.2101516 298.304315,16.3246075 294.992301,10.4661072 C294.026005,8.75633464 290.931058,5.42292912 293.513849,4.53148353 C294.737223,4.10979972 296.896884,4.50243643 298.149267,4.5014348 C300.210898,4.5014348 302.273529,4.5014348 304.33516,4.50043318 C318.539508,4.49943155 332.743855,4.49342181 346.948202,4.49943155 C350.138178,4.50043318 351.029451,4.78088797 352.190806,7.8959394 C353.321152,10.927856 354.500513,13.9217109 355.715885,16.9185707 C358.049599,22.672902 360.187254,28.5103682 362.472953,34.2837304 C362.963103,35.521738 363.527276,36.7276936 364.026429,37.9626963 C364.340525,38.7399567 364.842678,41.4613698 365.483875,41.8780455 C367.534502,43.2112074 368.778883,37.395777 369.315047,35.9724689 C371.503717,30.1550352 373.860438,24.3906876 376.143137,18.6103141 C377.228469,15.8618571 378.300797,13.1103953 379.373125,10.3569302 C380.30241,7.9700596 380.69653,4.91310237 383.405359,4.51445592 C386.494305,4.05971851 390.000378,4.49943155 393.125334,4.49943155 C396.845473,4.49943155 400.565611,4.49943155 404.28575,4.49943155 C411.726027,4.49943155 419.166304,4.49943155 426.605581,4.5014348 C430.092648,4.50243643 433.581716,4.47138607 437.067782,4.50443967 C437.687972,4.51044942 440.133721,4.15687606 440.534844,4.90308613 C441.019992,5.80554958 439.074397,8.26453713 438.619257,9.07084466 C432.049247,20.6946941 425.62228,32.4076882 419.170305,44.0986465 C412.637306,55.9368436 406.189332,67.8211154 399.61332,79.6362751 C398.489976,81.654548 396.179269,84.3949919 396.455353,86.777856 C396.749443,89.32098 399.403255,92.50915 400.622629,94.6936925 C404.082688,100.892745 407.549749,107.083785 410.935785,113.323904 C417.244716,124.954765 423.79372,136.453411 430.218686,148.019166 C433.295628,153.556145 436.271539,159.151218 439.353482,164.683189 C440.115715,166.052409 440.899955,167.408609 441.661188,168.778831 C441.943275,169.286654 444.068925,172.235436 443.890871,172.896508 C443.457738,174.502112 437.444898,173.725853 436.156504,173.725853 C428.980307,173.724851 421.803111,173.724851 414.625914,173.724851 Z" id="Path" fill="#FFFFFF"></path>
        <path d="M1048.1408,89.1026259 C1048.1408,63.586248 1048.1408,38.0708717 1048.1418,12.5544938 C1048.1418,10.7155117 1047.30254,6.37046566 1048.54692,4.96518683 C1049.67727,3.68811591 1054.78183,4.50043318 1056.41733,4.50043318 C1062.70826,4.49943155 1068.99918,4.49943155 1075.29111,4.49943155 C1087.90097,4.49943155 1100.51083,4.49943155 1113.12068,4.49943155 C1119.34159,4.49943155 1125.56349,4.50043318 1131.7844,4.50043318 C1134.77931,4.50043318 1137.77523,4.5014348 1140.77115,4.5014348 C1142.88279,4.5014348 1147.27514,3.57893886 1148.15641,5.75446675 C1149.01367,7.86989717 1148.22243,11.6279914 1148.22343,13.8916622 C1148.22443,17.1299134 1148.22543,20.3681646 1148.22543,23.6064159 C1148.22643,30.0829183 1148.22543,36.5594207 1148.22243,43.0359232 C1148.22143,44.1927992 1148.7846,47.3038441 1147.70527,48.1502166 C1146.30484,49.25 1142.43166,48.4136438 1140.73514,48.4146454 C1134.20014,48.4176503 1127.66614,48.4186519 1121.13114,48.4186519 C1118.09721,48.4186519 1115.06328,48.4186519 1112.02935,48.4186519 C1109.72565,48.4186519 1105.50835,47.5191933 1103.44372,48.5999459 C1101.69119,49.5174337 1102.15333,52.0405252 1102.15133,53.699215 C1102.14733,57.0546562 1102.13232,60.4090959 1102.15133,63.7645371 C1102.16033,65.2479427 1101.82623,66.7724148 1103.17064,67.5987548 C1104.87616,68.6464538 1108.98542,67.7530049 1110.95502,67.7550082 C1117.0849,67.7590147 1123.21477,67.7570114 1129.34465,67.7570114 C1132.54063,67.7570114 1135.73661,67.7560098 1138.93258,67.7560098 C1140.9572,67.7560098 1144.58932,67.0158095 1146.45189,67.83013 C1149.17772,69.0220628 1147.72628,76.1005415 1147.72728,78.6366541 C1147.72828,84.943882 1147.72728,91.25111 1147.72628,97.5583379 C1147.72628,100.436004 1147.78629,103.321684 1147.72127,106.198349 C1147.65325,109.20823 1147.00906,109.444613 1144.09116,109.509719 C1131.4793,109.78817 1118.84744,109.378506 1106.23258,109.514727 C1103.6898,109.54177 1102.47043,109.759123 1102.15733,112.37837 C1101.77421,115.587574 1102.15333,119.115295 1102.15433,122.347537 C1102.15533,123.954142 1101.4201,127.77634 1102.58446,129.086465 C1103.95488,130.626963 1108.2692,129.748538 1110.15478,129.748538 C1122.58958,129.74954 1135.3925,128.858094 1147.7913,129.768571 C1150.62116,129.975907 1150.26505,131.0817 1150.27506,133.644857 C1150.28806,136.883108 1150.27706,140.121359 1150.27806,143.35961 C1150.27906,149.836113 1150.28006,156.312615 1150.27806,162.789118 C1150.27706,165.681808 1150.48212,168.654629 1150.27105,171.539307 C1150.12101,173.596643 1149.73489,173.650731 1147.72628,173.71784 C1141.84047,173.913157 1135.91566,173.722848 1130.02586,173.722848 C1104.48504,173.721846 1078.94423,173.695804 1053.40341,173.722848 C1051.93096,173.724851 1049.31616,174.255712 1048.32585,172.938576 C1047.32755,171.610422 1048.1398,167.066053 1048.1398,165.458446 C1048.1398,158.97994 1048.1398,152.500433 1048.1398,146.021927 C1048.1398,133.29529 1048.1398,120.569654 1048.1398,107.843016 C1048.1408,101.597889 1048.1408,95.3497564 1048.1408,89.1026259 Z" id="Path" fill="#FFFFFF"></path>
        <path d="M1199.08699,147.002518 C1199.08699,140.80647 1199.08699,134.610422 1199.08699,128.415376 C1199.08699,127.31359 1198.41279,122.844342 1199.52113,122.051056 C1200.37239,121.442068 1204.58868,123.04667 1205.66501,123.310097 C1210.32743,124.449946 1215.15591,125.540715 1219.92937,126.23484 C1225.19398,127.001083 1231.30786,127.808392 1236.62348,127.331619 C1240.97881,126.940985 1245.96734,125.539713 1247.25474,120.810043 C1248.67517,115.593584 1244.41487,111.817461 1240.90079,108.746481 C1232.39219,101.310422 1222.76924,95.2295615 1214.97686,86.9711695 C1207.88869,79.4589876 1202.17994,70.5044667 1199.98927,60.374039 C1197.77159,50.1174066 1198.1397,37.9266378 1202.78913,28.3020304 C1212.4961,8.20844617 1233.46852,1.26017871 1254.3239,0.229507352 C1266.39159,-0.36645908 1278.31624,0.314645414 1290.33792,0.948673568 C1291.72435,1.02179214 1294.36715,0.54902549 1295.51551,1.50056853 C1296.83091,2.59033572 1296.98896,6.29634547 1297.34407,7.89694103 C1298.56344,13.3878452 1299.87184,18.8617218 1301.14323,24.3396048 C1302.31259,29.3777748 1303.69801,34.3758798 1304.72032,39.4501083 C1305.11644,41.4152951 1305.68662,43.2863292 1306.02972,45.2525176 C1306.44885,47.6544126 1307.80227,49.1207905 1304.91438,49.4994045 C1299.12861,50.2586357 1292.68764,49.4963996 1286.83985,49.4974012 C1281.30416,49.4974012 1275.30132,48.8082837 1269.82564,49.6246075 C1266.34558,50.1434489 1260.11967,51.8862751 1261.37306,56.6950731 C1261.95824,58.9417163 1264.28595,60.6735247 1265.90044,62.122875 C1268.12412,64.1181105 1270.42683,66.0211966 1272.72953,67.9242827 C1281.4452,75.1259611 1290.24689,82.4398214 1296.52581,91.973281 C1302.14253,100.500108 1306.56589,110.407174 1306.86698,120.755956 C1307.16207,130.914429 1305.9667,140.623173 1301.56536,149.844126 C1292.43656,168.970141 1270.6679,177.730347 1250.45171,178.091933 C1239.72943,178.283243 1229.22922,177.884597 1218.66599,176.124743 C1214.1456,175.371521 1209.62922,174.633324 1205.16385,173.707824 C1203.92748,173.451408 1200.19633,173.042745 1199.38709,172.062155 C1198.39778,170.864212 1199.08499,167.164212 1199.08499,165.759935 C1199.08699,159.506795 1199.08799,153.254656 1199.08699,147.002518 Z" id="Path" fill="#FFFFFF"></path>
        <path d="M570.610653,111.396779 C570.610653,121.44307 570.610653,131.489361 570.610653,141.535652 C570.610653,151.435707 571.277857,161.599188 570.599649,171.474201 C570.474611,173.298159 570.508621,173.42837 568.716073,173.715837 C566.694454,174.040363 564.375744,173.72385 562.338121,173.72385 C557.225556,173.724851 552.112991,173.724851 546.999426,173.724851 C537.281452,173.724851 527.420434,174.213644 517.717465,173.722848 C513.642218,173.516513 514.69554,170.487602 514.69654,167.017975 C514.697541,161.904683 514.69654,156.792393 514.69654,151.679101 C514.69654,141.685896 514.69654,131.691689 514.69654,121.698484 C514.69654,101.943449 514.69654,82.1884137 514.69654,62.4333785 C514.69654,58.6211966 515.307727,54.3212236 514.643524,50.5631294 C513.993325,46.8841636 508.496643,48.4216568 505.572748,48.4206552 C501.091377,48.4206552 496.610005,48.4206552 492.128634,48.4196535 C490.073004,48.4196535 487.785304,48.7161343 485.750682,48.4096373 C483.503994,48.0710883 483.553009,47.4440715 483.478986,45.2154575 C483.150886,35.3574716 483.469984,25.4313752 483.473985,15.5673796 C483.474985,13.0372767 483.403963,10.496156 483.478986,7.96805635 C483.546007,5.67734168 483.375955,4.74883599 485.851713,4.51044942 C490.765216,4.03768277 495.976811,4.5014348 500.917323,4.5014348 C520.296254,4.50043318 539.675185,4.50043318 559.054116,4.50043318 C568.659055,4.50043318 578.264995,4.50043318 587.869935,4.5014348 C590.156634,4.5014348 592.443334,4.5014348 594.731034,4.50243643 C596.164473,4.50243643 600.14069,3.78126696 601.352061,4.61762322 C603.384683,6.02190042 602.182315,13.7784787 602.182315,16.0641852 C602.182315,21.3557662 602.183315,26.6463455 602.182315,31.9379264 C602.182315,34.6984029 602.181315,37.4588793 602.180314,40.2203574 C602.179314,42.0322957 602.970556,45.9105848 602.077283,47.5362209 C601.245028,49.0506768 597.946018,48.4176503 596.366535,48.4186519 C593.633699,48.4206552 590.899862,48.4206552 588.167026,48.4216568 C585.434189,48.4216568 582.700353,48.4216568 579.967516,48.4226584 C577.813857,48.4226584 574.401813,47.8136709 572.304171,48.4827559 C568.986155,49.5404711 570.611653,57.9761506 570.611653,60.933947 C570.611653,66.5410396 570.610653,72.1481321 570.610653,77.7552247 C570.610653,88.9674066 570.610653,100.182593 570.610653,111.396779 Z" id="Path" fill="#FFFFFF"></path>
        <path d="M236.69546,128.365295 C236.69546,138.877342 236.69546,149.389388 236.694459,159.901435 C236.694459,162.470601 236.693459,165.040769 236.693459,167.609935 C236.693459,168.66765 237.231624,172.417731 236.508402,173.176963 C235.65014,174.079426 233.851589,173.716838 232.695235,173.719843 C229.731328,173.729859 226.766421,173.720845 223.801514,173.720845 C213.540373,173.721846 203.278233,173.722848 193.017092,173.721846 C190.736394,173.721846 188.456696,173.720845 186.175998,173.720845 C184.759565,173.720845 181.99772,174.311803 180.651308,173.688793 C178.021503,172.472821 179.376918,166.63836 179.376918,164.090227 C179.374917,143.580969 179.374917,123.072713 179.374917,102.563454 C179.374917,97.6695182 179.374917,92.7755821 179.374917,87.8806443 C179.374917,86.8780185 178.929781,84.3419058 179.759035,83.4925285 C180.651308,82.5790471 183.411152,83.0668382 184.48048,83.0678398 C194.623584,83.0688414 204.765688,83.0668382 214.908792,83.0678398 C220.441485,83.0688414 225.974178,83.0508122 231.505871,83.0708447 C234.198696,83.0808609 236.507402,82.3596914 236.692459,85.5138062 C236.847506,88.1530861 236.693459,90.8464538 236.693459,93.4897402 C236.69546,105.116595 236.69546,116.740444 236.69546,128.365295 Z" id="Path" fill="#FFFFFF"></path>
        <path d="M208.066698,4.49943155 C215.702035,4.49943155 223.336371,4.49842993 230.971708,4.50043318 C233.682538,4.5014348 236.519406,3.50882516 236.689458,6.79615597 C236.883517,10.5542502 236.693459,14.3734435 236.694459,18.1365458 C236.69546,25.8861127 236.69546,33.6346779 236.69546,41.3842448 C236.69546,45.2585274 236.694459,49.1338116 236.693459,53.0080942 C236.692459,55.0123444 237.272636,57.0296156 235.304034,57.8829995 C232.84128,58.950731 227.97379,57.9711424 225.287968,57.9711424 C221.368769,57.9711424 217.44957,57.9711424 213.52937,57.9711424 C205.690971,57.9711424 197.851572,57.9701408 190.013173,57.9681376 C188.052573,57.9671359 181.110448,59.027856 179.746031,57.4262588 C178.287584,55.7154846 179.377918,49.5494857 179.377918,47.4731186 C179.376918,39.7235517 179.376918,31.9749865 179.376918,24.2254196 C179.376918,19.895398 179.376918,15.5643747 179.377918,11.234353 C179.377918,9.77298326 178.834752,7.10365462 179.409928,5.73142939 C179.997107,4.32915543 180.589289,4.54350302 182.167772,4.50043318 C190.786409,4.2660531 199.444059,4.49943155 208.066698,4.49943155 Z" id="Path" fill="#FFFFFF"></path>
    </g>
</svg>